<svg width="193" height="28" viewBox="0 0 193 28" fill="none" xmlns="http://www.w3.org/2000/svg">
<path d="M14.084 27.504C11.444 27.504 9.068 26.952 6.956 25.848C4.868 24.72 3.224 23.16 2.024 21.168C0.824 19.176 0.224 16.92 0.224 14.4C0.224 11.88 0.824 9.624 2.024 7.632C3.224 5.64 4.868 4.092 6.956 2.988C9.068 1.86 11.444 1.296 14.084 1.296C16.388 1.296 18.464 1.704 20.312 2.52C22.16 3.336 23.696 4.512 24.92 6.048L20.384 10.152C18.752 8.184 16.772 7.2 14.444 7.2C13.076 7.2 11.852 7.5 10.772 8.1C9.716 8.7 8.888 9.552 8.288 10.656C7.712 11.736 7.424 12.984 7.424 14.4C7.424 15.816 7.712 17.076 8.288 18.18C8.888 19.26 9.716 20.1 10.772 20.7C11.852 21.3 13.076 21.6 14.444 21.6C16.772 21.6 18.752 20.616 20.384 18.648L24.92 22.752C23.696 24.288 22.16 25.464 20.312 26.28C18.464 27.096 16.388 27.504 14.084 27.504ZM36.9685 27.324C34.8805 27.324 32.9965 26.892 31.3165 26.028C29.6365 25.164 28.3165 23.964 27.3565 22.428C26.4205 20.892 25.9525 19.152 25.9525 17.208C25.9525 15.288 26.4205 13.56 27.3565 12.024C28.3165 10.488 29.6245 9.3 31.2805 8.46C32.9605 7.596 34.8565 7.164 36.9685 7.164C39.0805 7.164 40.9765 7.596 42.6565 8.46C44.3365 9.3 45.6445 10.488 46.5805 12.024C47.5165 13.536 47.9845 15.264 47.9845 17.208C47.9845 19.152 47.5165 20.892 46.5805 22.428C45.6445 23.964 44.3365 25.164 42.6565 26.028C40.9765 26.892 39.0805 27.324 36.9685 27.324ZM36.9685 21.888C38.1685 21.888 39.1525 21.48 39.9205 20.664C40.6885 19.824 41.0725 18.672 41.0725 17.208C41.0725 15.768 40.6885 14.64 39.9205 13.824C39.1525 13.008 38.1685 12.6 36.9685 12.6C35.7685 12.6 34.7845 13.008 34.0165 13.824C33.2485 14.64 32.8645 15.768 32.8645 17.208C32.8645 18.672 33.2485 19.824 34.0165 20.664C34.7845 21.48 35.7685 21.888 36.9685 21.888ZM61.125 27.324C58.965 27.324 57.033 26.892 55.329 26.028C53.625 25.164 52.293 23.964 51.333 22.428C50.397 20.892 49.929 19.152 49.929 17.208C49.929 15.264 50.397 13.536 51.333 12.024C52.293 10.488 53.625 9.3 55.329 8.46C57.033 7.596 58.965 7.164 61.125 7.164C63.333 7.164 65.241 7.644 66.849 8.604C68.457 9.54 69.597 10.848 70.269 12.528L64.977 15.228C64.089 13.476 62.793 12.6 61.089 12.6C59.865 12.6 58.845 13.008 58.029 13.824C57.237 14.64 56.841 15.768 56.841 17.208C56.841 18.672 57.237 19.824 58.029 20.664C58.845 21.48 59.865 21.888 61.089 21.888C62.793 21.888 64.089 21.012 64.977 19.26L70.269 21.96C69.597 23.64 68.457 24.96 66.849 25.92C65.241 26.856 63.333 27.324 61.125 27.324ZM82.4255 27.324C80.3375 27.324 78.4535 26.892 76.7735 26.028C75.0935 25.164 73.7735 23.964 72.8135 22.428C71.8775 20.892 71.4095 19.152 71.4095 17.208C71.4095 15.288 71.8775 13.56 72.8135 12.024C73.7735 10.488 75.0815 9.3 76.7375 8.46C78.4175 7.596 80.3135 7.164 82.4255 7.164C84.5375 7.164 86.4335 7.596 88.1135 8.46C89.7935 9.3 91.1015 10.488 92.0375 12.024C92.9735 13.536 93.4415 15.264 93.4415 17.208C93.4415 19.152 92.9735 20.892 92.0375 22.428C91.1015 23.964 89.7935 25.164 88.1135 26.028C86.4335 26.892 84.5375 27.324 82.4255 27.324ZM82.4255 21.888C83.6255 21.888 84.6095 21.48 85.3775 20.664C86.1455 19.824 86.5295 18.672 86.5295 17.208C86.5295 15.768 86.1455 14.64 85.3775 13.824C84.6095 13.008 83.6255 12.6 82.4255 12.6C81.2255 12.6 80.2415 13.008 79.4735 13.824C78.7055 14.64 78.3215 15.768 78.3215 17.208C78.3215 18.672 78.7055 19.824 79.4735 20.664C80.2415 21.48 81.2255 21.888 82.4255 21.888ZM105.466 20.16L103.45 22.212V27H96.6101V0.287998H103.45V14.292L110.434 7.488H118.534L110.434 15.84L119.218 27H110.938L105.466 20.16Z" fill="#2EC4B6"/>
<path d="M138.498 13.86H144.798V24.3C143.358 25.332 141.702 26.124 139.83 26.676C137.958 27.228 136.086 27.504 134.214 27.504C131.574 27.504 129.198 26.952 127.086 25.848C124.974 24.72 123.318 23.16 122.118 21.168C120.918 19.176 120.318 16.92 120.318 14.4C120.318 11.88 120.918 9.624 122.118 7.632C123.318 5.64 124.986 4.092 127.122 2.988C129.258 1.86 131.67 1.296 134.358 1.296C136.71 1.296 138.822 1.692 140.694 2.484C142.566 3.276 144.126 4.416 145.374 5.904L140.838 10.008C139.134 8.136 137.094 7.2 134.718 7.2C132.558 7.2 130.818 7.86 129.498 9.18C128.178 10.476 127.518 12.216 127.518 14.4C127.518 15.792 127.818 17.04 128.418 18.144C129.018 19.224 129.858 20.076 130.938 20.7C132.018 21.3 133.254 21.6 134.646 21.6C136.014 21.6 137.298 21.324 138.498 20.772V13.86ZM168.937 17.28C168.937 17.328 168.901 17.892 168.829 18.972H154.645C154.933 19.98 155.485 20.76 156.301 21.312C157.141 21.84 158.185 22.104 159.433 22.104C160.369 22.104 161.173 21.972 161.845 21.708C162.541 21.444 163.237 21.012 163.933 20.412L167.533 24.156C165.637 26.268 162.865 27.324 159.217 27.324C156.937 27.324 154.933 26.892 153.205 26.028C151.477 25.164 150.133 23.964 149.173 22.428C148.237 20.892 147.769 19.152 147.769 17.208C147.769 15.288 148.225 13.572 149.137 12.06C150.073 10.524 151.357 9.324 152.989 8.46C154.621 7.596 156.457 7.164 158.497 7.164C160.441 7.164 162.205 7.572 163.789 8.388C165.373 9.18 166.621 10.344 167.533 11.88C168.469 13.392 168.937 15.192 168.937 17.28ZM158.533 12.024C157.477 12.024 156.589 12.324 155.869 12.924C155.173 13.524 154.729 14.34 154.537 15.372H162.529C162.337 14.34 161.881 13.524 161.161 12.924C160.465 12.324 159.589 12.024 158.533 12.024ZM184.799 7.164C187.223 7.164 189.167 7.884 190.631 9.324C192.119 10.764 192.863 12.936 192.863 15.84V27H186.023V16.956C186.023 14.292 184.955 12.96 182.819 12.96C181.643 12.96 180.695 13.344 179.975 14.112C179.279 14.88 178.931 16.032 178.931 17.568V27H172.091V7.488H178.607V9.612C179.375 8.82 180.287 8.22 181.343 7.812C182.399 7.38 183.551 7.164 184.799 7.164Z" fill="#B2DE34"/>
</svg>
