<svg width="648" height="558" viewBox="0 0 648 558" fill="none" xmlns="http://www.w3.org/2000/svg">
<g clip-path="url(#clip0_11_871)">
<path opacity="0.18" d="M624.193 477.098C586.323 549.334 515.027 566.944 438.682 554.185C407.301 548.93 376.096 540.794 344.563 537.661C333.312 536.464 321.987 536.101 310.683 536.574C288.087 537.61 265.845 542.613 243.325 544.407C181.024 548.934 119.466 528.595 72.1039 487.836C57.269 475.02 44.271 460.218 33.4768 443.848C-45.7464 322.95 25.4737 164.078 144.006 100.357C167.182 87.9005 191.721 78.6784 214.822 66.0707C245.799 49.1424 274.1 26.2009 306.517 13.012C416.465 -31.7341 499.804 45.5041 533.053 144.117C546.863 185.099 557.29 228.203 579.734 264.358C602.758 301.449 638.457 331.768 646.384 375.933C652.443 409.764 640.653 445.667 624.193 477.098Z" fill="#2EC4B6"/>
<path opacity="0.18" d="M467.867 435.157L421.439 475.885L344.563 537.661C333.312 536.464 321.987 536.101 310.683 536.574C288.087 537.61 265.845 542.613 243.325 544.407C181.024 548.934 119.466 528.595 72.1038 487.836L205.582 478.185H262.714L289.475 435.889L467.867 435.157Z" fill="#2EC4B6"/>
<path d="M176.119 482.985C175.938 483.574 175.878 484.193 175.943 484.805C176.008 485.418 176.197 486.01 176.498 486.548C176.969 487.005 177.533 487.357 178.151 487.579C178.77 487.801 179.428 487.889 180.083 487.836C189.443 487.673 198.456 484.262 205.582 478.185C207.324 476.795 209.141 474.9 208.763 472.702C208.615 472.037 208.308 471.418 207.869 470.899C207.429 470.38 206.869 469.975 206.238 469.72C204.981 469.204 203.633 468.946 202.274 468.963C195.534 468.836 189.651 471.641 183.264 472.853C177.811 473.788 177.078 477.528 176.119 482.985Z" fill="#473F47"/>
<path d="M233.353 482.985C233.169 483.575 233.11 484.196 233.18 484.809C233.25 485.422 233.446 486.014 233.757 486.548C234.222 487.007 234.781 487.361 235.395 487.583C236.01 487.805 236.665 487.892 237.316 487.836C246.685 487.679 255.709 484.267 262.841 478.185C264.583 476.795 266.426 474.9 266.047 472.702C265.897 472.038 265.59 471.42 265.15 470.901C264.711 470.382 264.152 469.977 263.522 469.72C262.274 469.203 260.934 468.945 259.584 468.963C252.843 468.836 246.961 471.641 240.548 472.854C234.817 473.788 234.186 477.528 233.353 482.985Z" fill="#473F47"/>
<path d="M249.233 474.698C248.475 475.835 246.153 476.037 243.628 475.885H243.451C240.9 475.684 238.368 475.287 235.877 474.698C235.877 474.698 234.514 425.126 231.787 414.565C229.061 404.004 220.729 368.176 220.729 368.176C220.729 368.176 220.098 372.649 219.063 379.192C217.75 387.454 215.756 399.052 213.509 409.057C209.52 426.945 190.409 474.749 190.409 474.749H178.947C178.947 474.749 192.353 414.615 192.353 406.808C192.353 399.001 187.303 340.232 187.303 340.232L197.402 339.424L243.123 335.76C243.123 335.76 249.889 364.563 252.944 376.514C255.999 388.465 249.233 474.698 249.233 474.698Z" fill="#2EC4B6"/>
<path d="M243.628 475.885H243.451C240.9 475.684 238.368 475.287 235.877 474.698C235.877 474.698 234.514 425.126 231.787 414.565C229.061 404.004 220.729 368.176 220.729 368.176L208.763 370.703L206.692 373.634C206.692 373.634 202.199 393.645 199.901 409.385C197.806 423.661 188.162 466.941 186.394 474.748H178.82C178.82 474.748 192.226 414.615 192.226 406.808C192.226 399.001 187.177 340.232 187.177 340.232L197.276 339.424L229.843 347.484C229.843 347.484 229.187 353.32 238.705 379.546C248.223 405.772 243.628 475.885 243.628 475.885Z" fill="url(#paint0_linear_11_871)"/>
<path d="M259.331 283.358C260.065 283.99 260.976 284.377 261.94 284.468C262.903 284.558 263.871 284.347 264.709 283.864C266.239 282.837 267.53 281.493 268.496 279.922L273.015 273.479C274.91 271.058 276.434 268.367 277.534 265.495C278.11 262.289 278.955 259.136 280.059 256.071C280.241 255.657 280.55 255.311 280.942 255.086C281.649 254.757 282.432 255.086 283.189 255.313C283.976 255.376 284.766 255.243 285.488 254.926C286.211 254.608 286.844 254.116 287.33 253.494C288.39 252.306 289.147 250.967 290.233 249.729C291.318 248.491 292.758 247.86 294.07 248.618C295.383 249.376 295.282 251.65 295.131 253.368C295.081 256.235 295.284 259.101 295.737 261.933C296.09 265.975 295.459 270.498 291.445 272.545C290.083 273.078 288.752 273.685 287.456 274.364C285.432 276.045 283.919 278.259 283.088 280.756C280.097 287.329 276.279 293.494 271.727 299.099C269.354 302.03 266.325 305.011 262.563 305.062C257.943 305.062 255.443 299.377 253.626 295.916C253.161 295.143 252.86 294.283 252.742 293.389C252.712 292.516 252.894 291.649 253.272 290.862C254.817 288.012 256.871 285.468 259.331 283.358Z" fill="#FBC4D6"/>
<path d="M176.876 283.358C174.722 290.613 173.867 298.192 174.352 305.744C175.235 318.377 187.96 319.868 187.96 319.868L190.484 287.679L176.876 283.358Z" fill="#FBC4D6"/>
<path d="M221.184 239.32C221.184 239.32 237.089 243.868 241.204 248.138C245.32 252.408 242.946 335.71 242.946 335.71C242.946 335.71 215.175 371.865 187.202 340.182C187.202 340.182 180.992 255.136 184.678 250.31C188.364 245.485 201.164 230.527 221.184 239.32Z" fill="#FDFFFF"/>
<path d="M184.779 250.31C184.779 250.31 174.125 269.235 173.443 277.522C172.927 281.176 172.927 284.884 173.443 288.538L184.779 297.836V250.31Z" fill="#FDFFFF"/>
<path d="M241.204 248.138C241.204 248.138 254.282 259.255 259.786 273.404C265.289 287.553 251.884 299.225 251.884 299.225C251.884 299.225 228.632 276.158 231.838 263.423C235.044 250.689 237.771 248.365 241.204 248.138Z" fill="#FDFFFF"/>
<path d="M227.294 286.971C226.939 283.72 227.667 280.443 229.364 277.648C235.953 281.211 242.77 284.975 247.213 290.989C249.435 293.995 252.262 298.013 255.797 296.825C256.801 296.383 257.64 295.634 258.193 294.685C258.747 293.737 258.986 292.637 258.877 291.545C258.617 289.354 257.875 287.249 256.706 285.38C249.637 271.812 241.558 257.334 227.748 250.942C223.808 249.287 219.727 247.993 215.554 247.076L203.89 244.12C201.827 243.431 199.633 243.224 197.478 243.514C194.934 244.275 192.68 245.79 191.014 247.86C184.101 255.331 178.54 263.949 174.579 273.328C172.751 276.841 171.773 280.736 171.726 284.697C171.731 286.664 172.31 288.587 173.39 290.229C174.471 291.872 176.007 293.163 177.811 293.945L184.779 280.554C184.19 295.04 184.19 309.517 184.779 323.986C185.107 331.263 185.637 338.817 189.298 345.134C191.426 348.717 194.443 351.688 198.057 353.76C201.671 355.832 205.759 356.934 209.924 356.958C213.024 356.96 216.093 356.337 218.947 355.126C221.801 353.915 224.382 352.141 226.536 349.909C230.02 345.69 228.581 341.015 228.329 335.836C227.748 319.666 227.395 303.243 227.294 286.971Z" fill="url(#paint1_linear_11_871)"/>
<path d="M230.399 221.128C229.061 224.413 229.591 228.708 226.89 230.957C225.577 232.043 223.709 232.422 222.522 233.66C219.442 236.919 223.002 243.236 219.821 246.293C218.954 247.06 217.884 247.56 216.741 247.733C213.776 248.339 210.693 247.883 208.031 246.445C207.029 245.965 206.161 245.245 205.506 244.348C204.964 243.374 204.629 242.299 204.521 241.189C203.688 236.54 202.83 231.892 202.173 227.217C201.277 222.833 201.277 218.312 202.173 213.927C202.859 211.378 204.129 209.023 205.881 207.049C207.634 205.076 209.822 203.538 212.272 202.558C216.791 200.789 224.365 200.966 227.42 205.514C228.479 207.472 229.326 209.539 229.944 211.679C230.77 213.174 231.422 214.76 231.888 216.403C231.84 218.086 231.324 219.722 230.399 221.128Z" fill="#FBC4D6"/>
<path d="M233.353 201.623C233.13 202.734 232.748 203.806 232.217 204.806C231.984 205.351 231.598 205.816 231.106 206.145C230.856 206.306 230.556 206.368 230.262 206.322C229.969 206.275 229.703 206.123 229.515 205.893C228.407 207.816 226.89 209.472 225.072 210.744C224.754 210.976 224.495 211.278 224.314 211.628C223.911 212.512 224.314 213.548 224.314 214.508C224.112 216.328 222.068 217.187 220.704 218.399C220.026 218.989 219.478 219.714 219.096 220.527C218.713 221.341 218.504 222.225 218.483 223.124C217.447 223.124 217.22 221.255 216.185 221.204C215.604 221.204 215.175 221.709 214.898 222.215C213.963 223.566 213.526 225.2 213.66 226.838C213.746 227.643 214.121 228.389 214.716 228.938C215.31 229.486 216.084 229.8 216.892 229.82C216.484 232.028 215.734 234.159 214.67 236.136C214.202 237.161 213.459 238.036 212.524 238.663C211.607 239.089 210.607 239.305 209.596 239.294C207.681 239.515 205.741 239.308 203.915 238.688C201.983 237.828 200.406 236.329 199.447 234.443C198.018 231.197 196.935 227.81 196.215 224.337C195.342 220.821 194.254 217.361 192.958 213.978C192.271 212.052 191.879 210.033 191.797 207.99C191.763 206.971 191.956 205.957 192.362 205.022C192.768 204.086 193.377 203.253 194.145 202.583C194.799 202.163 195.423 201.699 196.013 201.193C196.651 200.456 197.132 199.596 197.427 198.667C198.085 196.997 199.153 195.519 200.532 194.371C201.744 193.523 203.07 192.851 204.471 192.375L220.174 186.236C219.819 186.928 219.695 187.716 219.821 188.484C221.916 187.769 224.185 187.746 226.295 188.419C228.404 189.092 230.241 190.426 231.535 192.224C232.474 193.578 233.121 195.113 233.434 196.731C233.747 198.35 233.72 200.016 233.353 201.623Z" fill="#FF681C"/>
<path d="M395.258 463.834C453.68 463.834 501.041 451.277 501.041 435.788C501.041 420.299 453.68 407.743 395.258 407.743C336.836 407.743 289.475 420.299 289.475 435.788C289.475 451.277 336.836 463.834 395.258 463.834Z" fill="#2EC4B6"/>
<path d="M395.258 455.041C435.373 455.041 467.892 446.421 467.892 435.788C467.892 425.155 435.373 416.536 395.258 416.536C355.143 416.536 322.624 425.155 322.624 435.788C322.624 446.421 355.143 455.041 395.258 455.041Z" fill="url(#paint2_linear_11_871)"/>
<path d="M395.258 463.202C453.68 463.202 501.041 450.646 501.041 435.157C501.041 419.668 453.68 407.111 395.258 407.111C336.836 407.111 289.475 419.668 289.475 435.157C289.475 450.646 336.836 463.202 395.258 463.202Z" fill="#2EC4B6"/>
<path d="M395.258 454.409C435.373 454.409 467.892 445.79 467.892 435.157C467.892 424.524 435.373 415.904 395.258 415.904C355.143 415.904 322.624 424.524 322.624 435.157C322.624 445.79 355.143 454.409 395.258 454.409Z" fill="url(#paint3_linear_11_871)"/>
<path d="M500.965 425.53C500.965 440.943 453.653 453.576 395.233 453.576C336.813 453.576 289.45 440.943 289.45 425.454V380.304C307.123 371.259 354.258 397.485 395.233 397.485C438.985 397.485 482.56 366.357 498.617 376.413C503.969 379.799 500.965 421.665 500.965 425.53Z" fill="#2EC4B6"/>
<path d="M500.965 425.53C500.888 427.694 500.068 429.764 498.642 431.392C488.544 444.025 446.079 453.601 395.132 453.601C376.911 453.685 358.712 452.342 340.701 449.583C318.458 446.072 301.569 440.412 293.894 433.691C291.604 431.977 290.03 429.475 289.475 426.667C289.396 426.319 289.354 425.963 289.349 425.606V380.304C307.022 371.234 354.157 397.46 395.132 397.46C438.884 397.46 482.484 366.332 498.642 376.388C503.969 379.799 500.965 421.665 500.965 425.53Z" fill="url(#paint4_linear_11_871)"/>
<path d="M395.258 408.375C453.68 408.375 501.041 395.818 501.041 380.329C501.041 364.84 453.68 352.284 395.258 352.284C336.836 352.284 289.475 364.84 289.475 380.329C289.475 395.818 336.836 408.375 395.258 408.375Z" fill="white"/>
<path d="M395.258 399.582C435.373 399.582 467.892 390.962 467.892 380.329C467.892 369.696 435.373 361.077 395.258 361.077C355.143 361.077 322.624 369.696 322.624 380.329C322.624 390.962 355.143 399.582 395.258 399.582Z" fill="url(#paint5_linear_11_871)"/>
<path opacity="0.15" d="M342.241 449.028L340.801 449.583C318.559 446.072 301.67 440.412 293.995 433.691C291.705 431.977 290.131 429.475 289.576 426.667C289.497 426.319 289.455 425.963 289.45 425.606V385.357L324.795 401.25C324.795 401.25 322.094 425.252 330.93 439.629C333.465 444.007 337.475 447.339 342.241 449.028Z" fill="white"/>
<path d="M365.846 363.982C364.326 363.985 362.842 363.514 361.602 362.635C360.361 361.756 359.425 360.512 358.922 359.076C358.42 357.64 358.377 356.084 358.799 354.622C359.22 353.16 360.086 351.866 361.276 350.92C379.176 336.644 425.478 292.808 424.695 261.857C424.089 237.021 407.553 222.24 389.881 206.575C369.204 188.207 345.8 167.362 351.758 128.604C354.712 109.478 369.103 88.8353 394.551 67.2581C406.015 57.5577 418.221 48.7719 431.057 40.9815C432.726 40.0918 434.673 39.8824 436.493 40.3972C438.312 40.912 439.861 42.1111 440.817 43.7434C441.773 45.3757 442.061 47.3148 441.62 49.1547C441.18 50.9946 440.046 52.5927 438.455 53.6145C426.313 61.0407 414.75 69.3771 403.867 78.5521C381.625 97.4763 368.522 115.542 366.25 130.827C361.504 161.677 379.176 177.393 399.626 195.584C417.879 211.83 438.581 230.274 439.364 261.453C439.843 280.604 428.205 303.521 404.776 329.671C394.163 341.468 382.677 352.448 370.416 362.517C369.105 363.514 367.492 364.031 365.846 363.982Z" fill="#2EC4B6"/>
<path d="M431.815 363.982C430.386 363.987 428.988 363.565 427.801 362.77C414.487 353.737 401.893 343.685 390.133 332.703C364.255 308.397 351.026 286.289 350.824 267.011C350.471 235.783 371.754 216.782 392.405 198.389C413.663 179.389 433.759 161.475 429.038 130.777C426.614 115.466 414.016 97.3247 392.405 78.4762C381.935 69.335 370.777 61.0147 359.029 53.5892C358.201 53.0915 357.478 52.4353 356.902 51.6581C356.327 50.8808 355.91 49.9978 355.676 49.0593C355.441 48.1208 355.394 47.1453 355.536 46.1885C355.678 45.2317 356.007 44.3123 356.505 43.4828C357.002 42.6533 357.658 41.93 358.434 41.3541C359.211 40.7782 360.093 40.361 361.031 40.1264C361.969 39.8918 362.944 39.8443 363.9 39.9867C364.856 40.1291 365.774 40.4585 366.603 40.9562C369.456 42.6996 436.485 83.9084 443.352 128.478C449.285 167.059 424.165 189.495 401.974 209.329C383.013 226.282 365.089 242.175 365.366 266.809C365.694 297.608 416.263 337.554 435.728 350.49C437.053 351.354 438.064 352.625 438.608 354.111C439.151 355.598 439.199 357.22 438.745 358.737C438.29 360.253 437.357 361.581 436.085 362.522C434.813 363.463 433.27 363.966 431.689 363.957L431.815 363.982Z" fill="#2EC4B6"/>
<path d="M426.134 128.377H363.018C361.148 128.267 359.39 127.446 358.104 126.081C356.818 124.717 356.102 122.912 356.102 121.037C356.102 119.161 356.818 117.357 358.104 115.993C359.39 114.628 361.148 113.807 363.018 113.697H426.134C428.005 113.807 429.763 114.628 431.049 115.993C432.334 117.357 433.051 119.161 433.051 121.037C433.051 122.912 432.334 124.717 431.049 126.081C429.763 127.446 428.005 128.267 426.134 128.377Z" fill="#2EC4B6"/>
<path d="M428.053 160.995H364.937C363.938 161.054 362.937 160.907 361.996 160.565C361.055 160.223 360.194 159.692 359.466 159.004C358.738 158.317 358.158 157.488 357.761 156.568C357.364 155.648 357.16 154.657 357.16 153.655C357.16 152.653 357.364 151.662 357.761 150.742C358.158 149.823 358.738 148.994 359.466 148.306C360.194 147.619 361.055 147.088 361.996 146.745C362.937 146.403 363.938 146.257 364.937 146.316H428.053C429.924 146.425 431.682 147.247 432.968 148.611C434.253 149.975 434.969 151.78 434.969 153.655C434.969 155.531 434.253 157.335 432.968 158.7C431.682 160.064 429.924 160.885 428.053 160.995Z" fill="#2EC4B6"/>
<path d="M426.134 252.66H363.018C361.148 252.55 359.39 251.729 358.104 250.365C356.818 249 356.102 247.196 356.102 245.32C356.102 243.445 356.818 241.64 358.104 240.276C359.39 238.912 361.148 238.091 363.018 237.981H426.134C428.005 238.091 429.763 238.912 431.049 240.276C432.334 241.64 433.051 243.445 433.051 245.32C433.051 247.196 432.334 249 431.049 250.365C429.763 251.729 428.005 252.55 426.134 252.66Z" fill="#2EC4B6"/>
<path d="M428.053 285.279H364.937C363.938 285.337 362.937 285.191 361.996 284.849C361.055 284.506 360.194 283.975 359.466 283.288C358.738 282.601 358.158 281.772 357.761 280.852C357.364 279.932 357.16 278.941 357.16 277.939C357.16 276.937 357.364 275.946 357.761 275.026C358.158 274.106 358.738 273.277 359.466 272.59C360.194 271.902 361.055 271.371 361.996 271.029C362.937 270.687 363.938 270.54 364.937 270.599H428.053C429.924 270.709 431.682 271.53 432.968 272.894C434.253 274.259 434.969 276.063 434.969 277.939C434.969 279.814 434.253 281.619 432.968 282.983C431.682 284.348 429.924 285.169 428.053 285.279Z" fill="#2EC4B6"/>
<path d="M397.581 84.1358L409.371 74.0294C409.371 74.0294 423.004 88.0268 427.043 93.56C431.083 99.0933 422.297 112.787 422.297 112.787C422.297 112.787 409.194 91.4882 397.581 84.1358Z" fill="url(#paint6_linear_11_871)"/>
<path d="M386.548 203.619L397.53 193.765C390.421 187.416 383.677 180.667 377.333 173.552L368.674 185.756C368.674 185.756 381.297 199.45 386.548 203.619Z" fill="url(#paint7_linear_11_871)"/>
<path d="M397.581 213.7L409.371 203.594C409.371 203.594 423.004 217.591 427.043 223.124C431.083 228.657 422.297 242.352 422.297 242.352C422.297 242.352 409.194 221.128 397.581 213.7Z" fill="url(#paint8_linear_11_871)"/>
<path d="M406.619 327.776L396.52 338.438C396.52 338.438 414.975 353.472 420.429 357.565C425.882 361.658 430.073 346.498 430.073 346.498C430.073 346.498 411.668 332.299 406.619 327.776Z" fill="url(#paint9_linear_11_871)"/>
<path d="M385.74 328.484L395.637 317.644C388.964 311.073 382.85 303.957 377.358 296.37L367.689 308.119C367.689 308.119 380.489 324.315 385.74 328.484Z" fill="url(#paint10_linear_11_871)"/>
<path d="M438.909 434.727C441.921 434.727 444.362 432.284 444.362 429.27C444.362 426.256 441.921 423.812 438.909 423.812C435.897 423.812 433.456 426.256 433.456 429.27C433.456 432.284 435.897 434.727 438.909 434.727Z" fill="#2EC4B6"/>
<path d="M461.277 431.771C464.289 431.771 466.731 429.328 466.731 426.313C466.731 423.299 464.289 420.856 461.277 420.856C458.266 420.856 455.824 423.299 455.824 426.313C455.824 429.328 458.266 431.771 461.277 431.771Z" fill="#2EC4B6"/>
</g>
<defs>
<linearGradient id="paint0_linear_11_871" x1="165.642" y1="210.87" x2="264.073" y2="699.688" gradientUnits="userSpaceOnUse">
<stop offset="0.01"/>
<stop offset="0.13" stop-opacity="0.69"/>
<stop offset="0.25" stop-opacity="0.32"/>
<stop offset="1" stop-opacity="0"/>
</linearGradient>
<linearGradient id="paint1_linear_11_871" x1="322.119" y1="467.497" x2="92.8837" y2="113.581" gradientUnits="userSpaceOnUse">
<stop offset="0.01"/>
<stop offset="0.13" stop-opacity="0.69"/>
<stop offset="0.25" stop-opacity="0.32"/>
<stop offset="1" stop-opacity="0"/>
</linearGradient>
<linearGradient id="paint2_linear_11_871" x1="420.101" y1="322.975" x2="385.588" y2="479.336" gradientUnits="userSpaceOnUse">
<stop/>
<stop offset="1" stop-opacity="0"/>
</linearGradient>
<linearGradient id="paint3_linear_11_871" x1="420.101" y1="322.344" x2="385.588" y2="478.704" gradientUnits="userSpaceOnUse">
<stop/>
<stop offset="1" stop-opacity="0"/>
</linearGradient>
<linearGradient id="paint4_linear_11_871" x1="594.099" y1="590.543" x2="290.29" y2="306.055" gradientUnits="userSpaceOnUse">
<stop/>
<stop offset="1" stop-opacity="0"/>
</linearGradient>
<linearGradient id="paint5_linear_11_871" x1="420.101" y1="267.517" x2="385.588" y2="423.851" gradientUnits="userSpaceOnUse">
<stop/>
<stop offset="1" stop-opacity="0"/>
</linearGradient>
<linearGradient id="paint6_linear_11_871" x1="336.282" y1="46.0094" x2="526.036" y2="158.996" gradientUnits="userSpaceOnUse">
<stop offset="0.01"/>
<stop offset="0.13" stop-opacity="0.69"/>
<stop offset="0.25" stop-opacity="0.32"/>
<stop offset="1" stop-opacity="0"/>
</linearGradient>
<linearGradient id="paint7_linear_11_871" x1="405.912" y1="207.687" x2="344.299" y2="158.54" gradientUnits="userSpaceOnUse">
<stop offset="0.01"/>
<stop offset="0.13" stop-opacity="0.69"/>
<stop offset="0.25" stop-opacity="0.32"/>
<stop offset="1" stop-opacity="0"/>
</linearGradient>
<linearGradient id="paint8_linear_11_871" x1="336.282" y1="175.573" x2="526.036" y2="288.56" gradientUnits="userSpaceOnUse">
<stop offset="0.01"/>
<stop offset="0.13" stop-opacity="0.69"/>
<stop offset="0.25" stop-opacity="0.32"/>
<stop offset="1" stop-opacity="0"/>
</linearGradient>
<linearGradient id="paint9_linear_11_871" x1="357.582" y1="249.402" x2="462.963" y2="434.463" gradientUnits="userSpaceOnUse">
<stop offset="0.01"/>
<stop offset="0.13" stop-opacity="0.69"/>
<stop offset="0.25" stop-opacity="0.32"/>
<stop offset="1" stop-opacity="0"/>
</linearGradient>
<linearGradient id="paint10_linear_11_871" x1="404.372" y1="330.656" x2="343.996" y2="282.495" gradientUnits="userSpaceOnUse">
<stop offset="0.01"/>
<stop offset="0.13" stop-opacity="0.69"/>
<stop offset="0.25" stop-opacity="0.32"/>
<stop offset="1" stop-opacity="0"/>
</linearGradient>
<clipPath id="clip0_11_871">
<rect width="648" height="558" fill="white"/>
</clipPath>
</defs>
</svg>
