<svg width="695" height="442" viewBox="0 0 695 442" fill="none" xmlns="http://www.w3.org/2000/svg">
<g style="mix-blend-mode:multiply">
<path fill-rule="evenodd" clip-rule="evenodd" d="M258 740C400.489 740 516 624.489 516 482C516 339.511 400.489 224 258 224C115.511 224 0 339.511 0 482C0 624.489 115.511 740 258 740ZM258 676.833C365.603 676.833 452.833 589.603 452.833 482C452.833 374.397 365.603 287.167 258 287.167C150.397 287.167 63.1669 374.397 63.1669 482C63.1669 589.603 150.397 676.833 258 676.833Z" fill="#FFBF69"/>
</g>
<g style="mix-blend-mode:multiply">
<path fill-rule="evenodd" clip-rule="evenodd" d="M542.5 629C716.194 629 857 488.194 857 314.5C857 140.806 716.194 0 542.5 0C368.806 0 228 140.806 228 314.5C228 488.194 368.806 629 542.5 629ZM542.5 552C673.668 552 780 445.668 780 314.5C780 183.332 673.668 77 542.5 77C411.332 77 305 183.332 305 314.5C305 445.668 411.332 552 542.5 552Z" fill="#CBF3F0"/>
</g>
</svg>
